HIERARCHY
ROOT Hips
{
	OFFSET -0.001795 -0.223333 0.028219
	CHANNELS 6 Xposition Yposition Zposition Zrotation Yrotation Xrotation 
	JOINT LeftUpLeg
	{
		OFFSET 0.069520 -0.091406 -0.006815
		CHANNELS 3 Zrotation Yrotation Xrotation
		JOINT LeftLeg
		{
			OFFSET 0.034277 -0.375199 -0.004496
			CHANNELS 3 Zrotation Yrotation Xrotation
			JOINT LeftFoot
			{
				OFFSET -0.013596 -0.397961 -0.043693
				CHANNELS 3 Zrotation Yrotation Xrotation
				JOINT LeftToe
				{
					OFFSET 0.026358 -0.055791 0.119288
					CHANNELS 3 Zrotation Yrotation Xrotation
					End Site
					{
						OFFSET 0.000000 0.000000 0.000000
					}
				}
			}
		}
	}
	JOINT RightUpLeg
	{
		OFFSET -0.067670 -0.090522 -0.004320
		CHANNELS 3 Zrotation Yrotation Xrotation
		JOINT RightLeg
		{
			OFFSET -0.038290 -0.382569 -0.008850
			CHANNELS 3 Zrotation Yrotation Xrotation
			JOINT RightFoot
			{
				OFFSET 0.015774 -0.398415 -0.042312
				CHANNELS 3 Zrotation Yrotation Xrotation
				JOINT RightToe
				{
					OFFSET -0.025372 -0.048144 0.123348
					CHANNELS 3 Zrotation Yrotation Xrotation
					End Site
					{
						OFFSET 0.000000 0.000000 0.000000
					}
				}
			}
		}
	}
	JOINT Spine
	{
		OFFSET -0.002533 0.108963 -0.026696
		CHANNELS 3 Zrotation Yrotation Xrotation
		JOINT Spine1
		{
			OFFSET 0.005487 0.135180 0.001092
			CHANNELS 3 Zrotation Yrotation Xrotation
			JOINT Spine2
			{
				OFFSET 0.001457 0.052922 0.025425
				CHANNELS 3 Zrotation Yrotation Xrotation
				JOINT Neck
				{
					OFFSET -0.002778 0.213870 -0.042857
					CHANNELS 3 Zrotation Yrotation Xrotation
					JOINT Head
					{
						OFFSET 0.005152 0.064970 0.051349
						CHANNELS 3 Zrotation Yrotation Xrotation
						End Site
						{
							OFFSET 0.000000 0.000000 0.000000
						}
					}
				}
				JOINT LeftShoulder
				{
					OFFSET 0.078845 0.121749 -0.034090
					CHANNELS 3 Zrotation Yrotation Xrotation
					JOINT LeftArm
					{
						OFFSET 0.090977 0.030469 -0.008868
						CHANNELS 3 Zrotation Yrotation Xrotation
						JOINT LeftForeArm
						{
							OFFSET 0.259612 -0.012772 -0.027456
							CHANNELS 3 Zrotation Yrotation Xrotation
							JOINT LeftHand
							{
								OFFSET 0.249234 0.008986 -0.001171
								CHANNELS 3 Zrotation Yrotation Xrotation
								End Site
								{
									OFFSET 0.000000 0.000000 0.000000
								}
							}
						}
					}
				}
				JOINT RightShoulder
				{
					OFFSET -0.081759 0.118833 -0.038615
					CHANNELS 3 Zrotation Yrotation Xrotation
					JOINT RightArm
					{
						OFFSET -0.096012 0.032551 -0.009143
						CHANNELS 3 Zrotation Yrotation Xrotation
						JOINT RightForeArm
						{
							OFFSET -0.253742 -0.013329 -0.021401
							CHANNELS 3 Zrotation Yrotation Xrotation
							JOINT RightHand
							{
								OFFSET -0.255298 0.007772 -0.005559
								CHANNELS 3 Zrotation Yrotation Xrotation
								End Site
								{
									OFFSET 0.000000 0.000000 0.000000
								}
							}
						}
					}
				}
			}
		}
	}
}
MOTION
Frames: 15
Frame Time: 0.050000
1.335084 0.968702 0.151006 -0.418735 -37.724408 0.111136 4.758488 1.796398 11.919315 0.247578 0.073658 4.808975 8.309183 13.115679 26.765612 0.000000 0.000000 0.000000 4.368269 2.009811 -14.559017 2.012638 2.782183 23.862949 -11.028050 -27.026990 22.913936 0.000000 0.000000 0.000000 2.801185 -0.327508 12.286720 0.837509 -0.051215 1.812366 -7.101961 -1.928619 5.499768 9.300383 -6.719746 -10.316308 0.000000 0.000000 0.000000 9.184371 -1.059057 -0.688684 -65.704340 7.153724 -6.910685 -91.078963 -71.218682 85.459009 0.000000 0.000000 0.000000 -5.112961 -6.733508 -0.342228 68.936675 -23.714616 -26.610301 100.203809 49.912890 51.899341 0.000000 0.000000 0.000000 
1.302917 0.961808 0.147729 -1.182137 -43.043191 1.017364 7.330199 1.909207 11.146285 -1.339087 0.945732 9.590828 7.383448 11.070032 28.082477 0.000000 0.000000 0.000000 5.792782 1.438450 -11.606432 2.252648 2.262568 20.344093 -9.281880 -24.668202 19.922500 0.000000 0.000000 0.000000 2.908668 -0.315429 11.045099 1.116464 0.293968 4.121629 -6.413961 -2.244706 3.601803 8.195383 -5.910023 -11.743127 0.000000 0.000000 0.000000 8.941538 -0.245226 -1.046355 -66.369000 7.534474 -6.379306 -96.163676 -69.963359 90.179040 0.000000 0.000000 0.000000 -6.704123 -5.263524 0.749003 70.889124 -23.094144 -28.008038 99.219855 49.117873 49.261371 0.000000 0.000000 0.000000 
1.269885 0.945186 0.143454 -1.129152 -49.256520 0.281480 10.418253 2.170194 8.640896 -2.871595 4.185505 21.226965 4.718176 7.177256 28.847054 0.000000 0.000000 0.000000 7.630590 1.052667 -9.410540 1.417779 2.819916 21.070861 -7.978312 -20.888927 11.926111 0.000000 0.000000 0.000000 2.513824 -0.157863 12.045158 0.660208 0.262519 1.710584 -5.609232 -0.877601 6.146009 7.711188 -5.943053 -12.728595 0.000000 0.000000 0.000000 7.997885 0.259135 -1.361306 -66.499588 10.011011 -7.297056 -100.465356 -67.998259 94.367565 0.000000 0.000000 0.000000 -7.997105 -4.150242 1.610179 71.585747 -20.558208 -28.148662 97.669758 49.246542 47.339089 0.000000 0.000000 0.000000 
1.240001 0.929677 0.139315 -1.887190 -55.217878 -0.391263 10.284460 2.114339 4.007667 2.484694 8.137823 36.819495 1.746490 3.671939 28.671460 0.000000 0.000000 0.000000 9.678987 0.704102 -7.150878 0.369941 3.600902 22.427674 -7.291470 -17.121198 6.519173 0.000000 0.000000 0.000000 4.071754 -0.052615 14.466395 0.014570 0.280516 -0.362222 -5.794525 0.754266 7.857572 7.747255 -6.037368 -16.893997 0.000000 0.000000 0.000000 6.965759 0.763884 -1.527061 -68.080709 10.741673 -7.657524 -95.344411 -69.312948 91.254146 0.000000 0.000000 0.000000 -6.997170 -4.348768 1.237105 69.767028 -17.677670 -25.853072 96.917327 49.480636 45.950622 0.000000 0.000000 0.000000 
1.211755 0.925915 0.138236 -2.214882 -60.801635 -0.689990 8.081447 1.713733 -2.532209 10.826975 11.160861 50.346607 -2.004285 -0.334697 27.448510 0.000000 0.000000 0.000000 11.679670 0.204868 -3.714208 -3.240363 3.835988 20.148064 -5.027052 -11.855057 4.506181 0.000000 0.000000 0.000000 4.168522 0.160143 15.355796 -1.187530 0.947298 -0.034648 -5.087281 2.264140 8.790051 7.539016 -6.061457 -18.319913 0.000000 0.000000 0.000000 6.641777 1.248394 -1.741950 -69.726978 10.062809 -6.910964 -88.749169 -68.805935 84.256341 0.000000 0.000000 0.000000 -6.030891 -3.044976 1.212418 71.247949 -12.780700 -23.881135 95.572767 51.203190 46.170311 0.000000 0.000000 0.000000 
1.181291 0.931026 0.140038 -3.240377 -66.736195 0.924808 5.396105 1.700653 -10.466710 18.660098 11.686417 57.855005 -5.212895 -5.946181 18.000243 0.000000 0.000000 0.000000 12.523748 -0.198640 -0.382963 -5.509521 3.252416 16.481040 -1.190221 -5.702112 4.667018 0.000000 0.000000 0.000000 3.276505 0.430410 15.685145 -1.429750 0.837934 -1.643497 -3.335666 5.267536 10.072525 6.093956 -5.447264 -19.121740 0.000000 0.000000 0.000000 6.200777 2.120794 -2.062127 -70.643389 11.086836 -7.115088 -82.271025 -67.827131 77.028183 0.000000 0.000000 0.000000 -7.725523 -2.831788 1.942323 72.126526 -7.699731 -22.210137 97.019522 51.099363 46.724094 0.000000 0.000000 0.000000 
1.147123 0.942112 0.144163 -3.607489 -73.066784 2.355223 2.173806 2.501322 -18.873703 21.343891 11.514270 57.487295 -8.459608 -13.526054 5.079678 0.000000 0.000000 0.000000 12.035521 -0.435981 4.103858 -7.420835 2.033235 10.817382 4.256820 0.588471 6.962830 0.000000 0.000000 0.000000 2.196414 0.711102 15.786571 -2.660574 1.234814 -2.710788 -1.786151 7.790181 10.344317 6.096572 -5.592748 -19.909198 0.000000 0.000000 0.000000 5.315588 2.984222 -2.285017 -71.074764 12.656740 -7.580742 -76.219918 -66.057473 69.707014 0.000000 0.000000 0.000000 -7.430202 -2.042211 2.058855 72.723413 -4.759749 -21.131641 97.103899 50.113565 44.741445 0.000000 0.000000 0.000000 
1.108183 0.949431 0.150905 -5.132061 -78.778898 4.973525 0.662561 4.108847 -24.313490 15.834781 10.603533 47.194161 -12.161759 -21.248358 -9.996422 0.000000 0.000000 0.000000 10.282690 -0.110087 8.524257 -6.857769 0.919709 5.874686 8.833013 4.701522 9.573186 0.000000 0.000000 0.000000 1.400241 0.718896 14.539233 -3.281617 1.488803 -3.276885 -1.337539 10.407981 11.126986 6.146468 -5.863791 -19.860578 0.000000 0.000000 0.000000 6.946872 3.012077 -2.781925 -72.528415 14.536207 -7.611742 -71.806279 -65.911797 65.476908 0.000000 0.000000 0.000000 -9.176637 -2.206730 2.795099 74.607841 -2.766595 -22.049497 99.158681 48.249363 43.939747 0.000000 0.000000 0.000000 
1.064535 0.951503 0.159798 -8.690247 -84.489554 8.937782 -0.389049 5.149386 -26.306073 8.543752 6.588555 30.461631 -11.143972 -14.632136 -3.194393 0.000000 0.000000 0.000000 7.860230 0.966391 12.552767 -5.967349 0.525095 3.613750 12.556690 8.370213 11.317783 0.000000 0.000000 0.000000 0.325730 1.120939 15.135894 -4.822167 1.720056 -5.022221 0.115622 12.040554 10.966802 6.025795 -6.031137 -18.919598 0.000000 0.000000 0.000000 7.845805 3.219458 -3.218119 -73.528345 16.978117 -7.751047 -70.410124 -67.521662 65.667594 0.000000 0.000000 0.000000 -8.782831 -1.377150 2.932731 74.669246 -0.743161 -21.444350 100.702277 48.763341 44.301573 0.000000 0.000000 0.000000 
1.015772 0.945619 0.170623 -21.288671 -88.444037 21.669562 -0.281162 5.964077 -26.686632 5.141079 2.860855 17.671841 -9.232810 -10.946467 11.677563 0.000000 0.000000 0.000000 5.397154 2.794411 16.799372 -4.102209 0.340813 2.360772 13.050415 9.769053 10.781593 0.000000 0.000000 0.000000 -0.382930 1.460104 15.655836 -5.510510 1.691977 -6.335632 0.239244 12.334360 11.263214 4.992736 -5.758379 -18.334457 0.000000 0.000000 0.000000 8.164256 3.113438 -3.466832 -75.141210 18.104446 -7.351777 -67.666825 -70.829717 66.712054 0.000000 0.000000 0.000000 -8.995810 -1.623020 3.047582 75.447162 0.192653 -22.206967 100.370938 45.452247 38.972685 0.000000 0.000000 0.000000 
0.962431 0.937774 0.183202 -175.158725 -86.781744 174.930385 -0.297718 6.359449 -26.067276 5.265163 2.261628 14.932248 -8.225731 -9.140298 22.612115 0.000000 0.000000 0.000000 3.709404 4.871419 19.906601 -4.283856 0.752785 6.313516 11.202145 11.937053 7.036176 0.000000 0.000000 0.000000 -1.893848 1.713076 15.075475 -6.372012 2.355684 -5.501546 1.190541 11.668768 10.725684 4.136149 -5.514524 -20.049506 0.000000 0.000000 0.000000 6.690417 3.148361 -3.240173 -74.243643 18.542961 -6.935200 -62.528696 -74.389688 65.915610 0.000000 0.000000 0.000000 -7.127779 1.320354 2.871975 75.031807 1.508566 -21.002577 100.342665 48.449431 39.991193 0.000000 0.000000 0.000000 
0.905516 0.932574 0.197642 178.160928 -83.714345 -179.141777 -0.816595 5.940000 -24.928628 5.579912 4.539647 20.031657 -4.426089 -6.119726 19.763599 0.000000 0.000000 0.000000 0.824904 6.704682 20.860708 -1.759232 1.483605 11.374214 12.093643 9.547804 9.651780 0.000000 0.000000 0.000000 -3.397969 2.041329 14.692173 -6.961673 3.116666 -4.138793 1.630577 9.945224 9.378492 2.282771 -4.677779 -18.859438 0.000000 0.000000 0.000000 5.335229 1.853495 -2.344017 -74.399738 17.243487 -5.952933 -45.647234 -76.914081 53.074506 0.000000 0.000000 0.000000 -5.546789 2.890569 2.454227 72.925854 1.337681 -19.672127 95.472594 49.415906 35.411359 0.000000 0.000000 0.000000 
0.847302 0.935010 0.213476 174.597181 -81.232582 -175.386347 -2.264239 4.921402 -23.512141 6.597842 7.190788 24.904181 -1.691278 -3.300793 14.920206 0.000000 0.000000 0.000000 -3.534555 7.442184 17.794939 2.026312 3.353706 19.664010 14.675434 5.478248 16.323470 0.000000 0.000000 0.000000 -4.333457 1.880737 13.073122 -6.825606 3.152841 -4.141976 1.463973 9.004920 9.617530 2.059262 -4.890953 -19.788358 0.000000 0.000000 0.000000 4.443673 1.276305 -1.856296 -72.833319 15.196480 -4.344385 -42.589584 -78.887133 53.206484 0.000000 0.000000 0.000000 -5.939846 3.553229 2.759192 71.588492 1.161271 -19.924022 92.662439 48.665875 31.075133 0.000000 0.000000 0.000000 
0.791695 0.940427 0.228306 174.364647 -80.301524 -175.482707 -3.502490 3.200982 -20.359469 8.151062 8.783869 27.632644 -2.145931 -3.083599 11.140767 0.000000 0.000000 0.000000 -5.868479 5.912131 11.829237 6.177680 7.588477 31.933186 12.845575 -4.487699 26.299498 0.000000 0.000000 0.000000 -4.632308 1.923101 12.811022 -6.948567 3.272144 -4.012885 1.449752 7.133294 8.608198 1.001468 -4.335270 -18.246272 0.000000 0.000000 0.000000 6.207786 -0.548714 -1.649878 -73.178957 12.103124 -1.384923 -27.862565 -79.787080 40.673505 0.000000 0.000000 0.000000 -5.932486 2.996805 2.580537 70.009025 -1.737424 -21.116337 90.130711 46.590828 26.521607 0.000000 0.000000 0.000000 
0.739442 0.943736 0.240951 173.210069 -79.834392 -174.949067 -4.291017 1.546250 -16.005760 7.314865 10.000289 27.857772 -1.745247 -1.778689 8.556440 0.000000 0.000000 0.000000 -6.417912 3.593818 4.372655 13.304287 12.490731 44.934853 3.972268 -11.840351 26.237083 0.000000 0.000000 0.000000 -5.136548 2.275833 13.619977 -6.058178 2.687305 -4.552610 0.787535 4.504330 8.630006 0.821488 -4.371709 -18.320712 0.000000 0.000000 0.000000 5.657244 -0.947064 -1.181128 -71.484097 9.476727 0.317433 -20.815535 -82.976577 37.407820 0.000000 0.000000 0.000000 -5.481607 3.463220 2.284943 68.470575 -4.756488 -22.228093 88.337227 44.138510 21.930312 0.000000 0.000000 0.000000 
